<?xml version="1.0" standalone="no"?>
<!DOCTYPE svg PUBLIC "-//W3C//DTD SVG 20010904//EN"
 "http://www.w3.org/TR/2001/REC-SVG-20010904/DTD/svg10.dtd">
<svg version="1.0" xmlns="http://www.w3.org/2000/svg"
 width="800.000000pt" height="200.000000pt" viewBox="0 0 900.000000 600.000000"
 preserveAspectRatio="xMidYMid meet">

<g transform="translate(0.000000,600.000000) scale(0.100000,-0.100000)"
fill="#000000" stroke="none">
<path d="M0 3000 l0 -3000 4000 0 4000 0 0 3000 0 3000 -4000 0 -4000 0 0
-3000z m4203 975 c230 -40 449 -167 593 -345 l57 -70 -99 -150 c-55 -82 -101
-150 -104 -150 -3 0 -25 33 -49 73 -90 147 -238 258 -401 303 -102 28 -263 24
-365 -9 -155 -50 -283 -152 -372 -294 -25 -40 -47 -73 -49 -73 -2 0 -48 67
-103 149 l-100 149 25 33 c42 58 156 169 219 214 213 152 491 215 748 170z
m2567 -149 l0 -165 -432 -4 c-471 -4 -472 -4 -601 -65 -77 -36 -170 -107 -218
-164 -21 -25 -186 -269 -369 -544 -183 -274 -351 -521 -374 -548 -96 -116
-287 -238 -452 -289 -302 -95 -644 -34 -893 158 -118 90 -180 172 -520 683
-184 276 -338 501 -343 500 -4 -2 -166 -239 -358 -528 l-350 -525 539 -3 539
-2 99 -153 c55 -83 103 -158 107 -164 6 -10 -187 -13 -949 -13 l-956 0 662
990 c364 544 666 990 669 990 4 0 109 -154 235 -342 490 -737 701 -1045 754
-1101 209 -221 551 -265 817 -106 116 69 157 123 522 672 379 571 412 613 572
719 126 83 264 135 430 161 14 3 215 5 448 6 l422 1 0 -164z m0 -666 l0 -170
-400 0 -400 0 -220 -330 -220 -330 620 0 620 0 0 -165 0 -165 -930 0 -930 0
419 628 c230 345 430 637 444 650 51 48 81 51 555 51 l442 1 0 -170z"/>
</g>
</svg>
