<?xml version="1.0" standalone="no"?>
<!DOCTYPE svg PUBLIC "-//W3C//DTD SVG 20010904//EN"
 "http://www.w3.org/TR/2001/REC-SVG-20010904/DTD/svg10.dtd">
<svg version="1.0" xmlns="http://www.w3.org/2000/svg"
 width="512.000000pt" height="512.000000pt" viewBox="0 0 512.000000 512.000000"
 preserveAspectRatio="xMidYMid meet">
<metadata>
Created by potrace 1.16, written by Peter Selinger 2001-2019
</metadata>
<g transform="translate(0.000000,512.000000) scale(0.100000,-0.100000)"
fill="#000000" stroke="none">
<path d="M0 2560 l0 -2560 2560 0 2560 0 0 2560 0 2560 -2560 0 -2560 0 0
-2560z m4582 406 c164 -219 248 -514 219 -777 -49 -452 -350 -821 -786 -964
-257 -84 -578 -85 -834 -3 -129 41 -232 94 -378 194 -68 47 -123 82 -123 78 0
-3 99 -319 220 -702 121 -384 220 -701 220 -705 0 -4 -252 -7 -560 -7 -308 0
-560 2 -560 5 0 3 99 321 220 706 121 386 219 703 217 705 -1 2 -57 -33 -122
-77 -147 -99 -227 -140 -358 -184 -145 -49 -267 -68 -432 -68 -431 -1 -806
185 -1018 505 -187 281 -241 609 -152 925 31 110 118 286 186 378 29 39 494
512 1033 1053 l981 982 983 -982 c602 -601 1007 -1014 1044 -1062z m-3352 831
c0 -2 -19 -21 -42 -42 l-43 -40 40 43 c36 39 45 47 45 39z"/>
</g>
</svg>
